<?xml version="1.0" standalone="no"?>
<!DOCTYPE svg PUBLIC "-//W3C//DTD SVG 20010904//EN"
 "http://www.w3.org/TR/2001/REC-SVG-20010904/DTD/svg10.dtd">
<svg version="1.0" xmlns="http://www.w3.org/2000/svg"
 width="200.000000px" height="200.000000px" viewBox="0 0 1196.000000 1204.000000"
 preserveAspectRatio="xMidYMid meet">

<g transform="translate(0.000000,1204.000000) scale(0.100000,-0.100000)"
fill="#000000" stroke="none">
<path d="M4635 11792 c-61 -29 -118 -98 -147 -177 -59 -157 -92 -487 -104
-1005 l-6 -285 -32 -45 c-66 -92 -212 -354 -247 -442 -11 -29 -27 -69 -36 -88
-8 -19 -19 -44 -24 -55 -8 -19 -35 -96 -64 -180 -45 -134 -88 -345 -102 -497
-3 -34 -10 -58 -16 -59 -7 0 -79 0 -162 1 l-150 1 -35 -36 c-29 -30 -35 -43
-35 -80 0 -36 6 -50 34 -79 37 -38 52 -42 248 -52 65 -4 116 -11 121 -18 11
-14 34 -154 27 -166 -5 -8 -74 -6 -193 5 -42 4 -63 13 -101 43 -50 39 -57 44
-166 123 -38 27 -77 55 -85 62 -27 21 -346 230 -390 255 -66 38 -309 159 -340
169 -167 56 -364 79 -543 64 -111 -10 -252 -37 -302 -60 -252 -112 -424 -245
-542 -418 -131 -191 -173 -322 -173 -532 1 -128 10 -173 57 -271 41 -85 138
-189 212 -228 82 -42 206 -39 262 7 26 21 25 23 -29 111 -41 67 -69 139 -88
234 -16 75 -16 95 -5 163 16 95 33 134 67 150 34 16 60 0 80 -46 11 -27 12
-46 3 -104 -8 -53 -8 -89 1 -145 15 -93 55 -197 85 -222 8 -7 15 -18 15 -25 0
-20 122 -129 170 -151 79 -38 100 -44 141 -44 66 0 189 65 189 100 0 11 -13
38 -29 62 -65 99 -99 272 -71 362 5 17 14 53 21 79 11 46 46 87 74 87 7 0 23
-9 36 -19 24 -19 24 -22 24 -198 0 -168 1 -181 24 -223 50 -96 121 -144 211
-143 80 0 135 31 223 123 42 44 84 80 94 80 67 0 84 -80 34 -154 -60 -86 -190
-178 -279 -197 -44 -9 -73 -9 -127 1 -38 6 -84 14 -100 17 -25 4 -41 -4 -87
-40 l-57 -44 77 -81 c119 -124 325 -317 456 -427 182 -153 307 -248 511 -386
124 -85 198 -130 390 -240 117 -67 407 -204 525 -248 84 -31 120 -46 150 -61
12 -5 18 -43 27 -161 7 -85 15 -190 19 -234 3 -44 11 -86 16 -92 19 -23 1 -46
-30 -38 -15 3 -49 10 -77 15 -27 5 -72 14 -100 19 -51 9 -160 27 -340 56 -55
8 -107 18 -116 20 -9 3 -45 10 -80 15 -35 5 -88 14 -116 20 -29 5 -74 14 -100
19 -27 5 -93 17 -148 26 -55 9 -120 21 -145 25 -25 5 -70 14 -100 19 -30 5
-98 17 -150 26 -181 33 -324 8 -554 -94 -25 -12 -66 -30 -91 -41 -25 -11 -48
-20 -51 -20 -9 0 -182 -68 -229 -91 -22 -10 -65 -28 -95 -39 -30 -12 -68 -28
-85 -35 -16 -8 -68 -28 -115 -46 -47 -17 -101 -38 -120 -46 -19 -8 -44 -19
-55 -23 -11 -4 -41 -17 -67 -29 -26 -12 -51 -21 -54 -21 -3 0 -20 -6 -37 -14
-18 -7 -59 -24 -92 -36 -33 -12 -73 -28 -90 -35 -26 -11 -92 -38 -160 -65 -11
-4 -36 -15 -55 -23 -19 -9 -79 -31 -133 -51 -54 -19 -112 -42 -130 -50 -18 -7
-48 -20 -67 -29 -19 -8 -77 -31 -128 -51 -118 -45 -147 -61 -200 -111 -47 -43
-82 -103 -101 -175 -17 -62 -10 -2441 8 -2515 17 -76 57 -150 110 -204 48 -49
147 -103 211 -116 19 -3 44 -10 55 -14 11 -5 40 -14 65 -21 25 -7 54 -16 65
-20 11 -5 31 -11 45 -14 14 -3 50 -12 80 -20 47 -13 215 -55 340 -86 19 -5 62
-16 95 -25 33 -10 75 -19 93 -22 18 -3 35 -9 38 -14 3 -5 16 -9 30 -9 13 0 32
-4 42 -9 9 -6 87 -26 172 -45 85 -20 171 -40 190 -45 99 -26 127 -34 145 -41
27 -11 192 -51 233 -57 18 -3 35 -9 38 -14 3 -5 14 -9 25 -9 11 0 86 -16 167
-35 191 -46 223 -55 244 -66 10 -5 27 -9 37 -9 11 0 30 -4 43 -9 32 -12 81
-25 238 -62 130 -30 176 -42 380 -96 52 -14 106 -27 120 -30 14 -2 34 -8 45
-13 11 -4 43 -12 70 -19 28 -6 114 -26 193 -46 164 -40 284 -47 327 -19 24 15
26 15 67 -20 23 -20 49 -36 58 -36 9 0 20 -4 25 -9 9 -8 71 -22 163 -38 18 -3
35 -9 38 -14 3 -5 15 -9 27 -9 12 0 72 -12 132 -26 61 -14 142 -32 180 -41 88
-19 129 -29 180 -43 46 -13 83 -23 175 -44 71 -17 98 -24 240 -55 52 -11 113
-26 135 -32 62 -16 104 -27 180 -44 39 -9 87 -20 108 -25 83 -22 115 -30 182
-44 39 -9 99 -23 135 -31 36 -8 92 -20 125 -26 33 -6 69 -15 80 -19 11 -5 32
-11 48 -14 15 -3 39 -9 55 -12 15 -3 36 -9 47 -14 11 -4 47 -14 80 -20 33 -7
78 -16 100 -21 111 -27 148 -31 245 -27 134 6 197 33 341 143 30 23 64 47 124
90 122 86 251 179 255 185 3 4 64 49 135 101 115 83 206 150 285 209 14 10 63
47 110 81 47 34 131 96 188 138 123 90 156 115 219 161 26 19 50 37 53 40 3 3
41 32 85 63 44 31 94 67 110 79 34 26 163 153 185 183 43 58 78 167 86 269 7
92 19 111 72 121 20 4 42 10 47 14 6 4 37 18 70 31 72 28 199 91 203 102 2 5
8 8 13 8 13 0 173 109 224 151 94 80 191 179 244 248 54 70 141 197 141 205 0
2 16 39 36 83 49 109 51 113 65 158 6 22 15 50 20 63 5 13 9 31 9 42 0 14 24
31 93 64 183 88 364 208 486 321 85 78 191 187 219 225 15 19 42 53 60 74 94
107 271 417 347 606 10 25 24 59 32 77 25 58 80 236 97 313 9 41 21 89 26 106
6 17 10 44 10 60 0 17 4 34 9 40 5 5 11 32 14 59 3 28 11 95 17 150 14 127 14
542 -1 660 -6 50 -13 113 -15 140 -3 28 -9 59 -14 70 -5 11 -11 36 -14 55 -18
129 -82 383 -116 465 -5 11 -18 47 -30 80 -22 62 -45 118 -61 147 -5 10 -9 23
-9 28 0 6 -9 30 -20 52 -11 23 -20 46 -20 50 0 5 -16 41 -35 81 -19 39 -35 78
-35 84 0 7 -4 13 -10 13 -5 0 -10 7 -10 15 0 8 -4 23 -10 33 -15 28 -38 83
-60 147 -12 33 -25 69 -30 80 -18 44 -32 85 -40 117 -5 18 -14 51 -20 73 -26
89 -33 145 -33 250 1 117 9 192 24 201 5 3 9 14 9 25 0 10 4 27 9 37 5 9 26
51 46 92 20 41 45 84 55 95 9 11 21 27 26 36 5 9 32 42 59 74 127 148 151 179
185 245 12 25 27 53 32 63 19 37 21 179 4 245 -25 99 -92 193 -173 246 -38 24
-86 49 -108 56 -22 7 -48 16 -57 21 -23 12 -230 12 -260 0 -13 -5 -41 -14 -63
-21 -63 -20 -145 -60 -205 -101 -56 -37 -221 -197 -243 -235 -7 -11 -34 -54
-61 -95 -27 -41 -65 -110 -84 -154 -19 -44 -38 -88 -43 -97 -5 -10 -9 -26 -9
-36 0 -10 -4 -22 -8 -28 -17 -18 -42 -122 -65 -259 -15 -92 -15 -420 1 -515 6
-41 18 -109 27 -150 9 -41 18 -90 22 -108 3 -18 9 -35 14 -38 5 -3 9 -14 9
-25 0 -10 4 -27 9 -37 5 -9 21 -57 36 -107 29 -97 93 -269 130 -350 38 -84 53
-118 74 -171 18 -48 34 -84 81 -189 42 -93 50 -114 50 -124 0 -6 4 -19 10 -29
5 -9 23 -62 39 -117 17 -55 35 -113 40 -130 6 -16 15 -57 21 -90 7 -33 16 -80
22 -105 25 -118 31 -192 31 -405 1 -214 -3 -262 -32 -395 -31 -143 -93 -312
-148 -398 -18 -29 -33 -55 -33 -58 0 -2 -9 -14 -20 -26 -19 -21 -19 -19 -19
204 0 302 -31 614 -81 816 -24 101 -29 120 -45 177 -35 131 -81 286 -107 360
-20 60 -34 95 -68 170 -10 22 -34 81 -54 130 -20 50 -50 115 -65 145 -85 167
-151 285 -204 370 -33 52 -80 129 -105 170 -25 41 -49 77 -52 80 -3 3 -17 21
-30 40 -14 19 -30 42 -37 50 -7 8 -46 60 -88 115 -131 174 -302 374 -468 549
l-68 71 5 55 c2 30 10 109 16 175 21 206 3 545 -39 745 -18 85 -57 229 -64
236 -4 4 -7 16 -7 26 0 10 -4 26 -9 36 -5 9 -23 58 -41 107 -29 81 -110 255
-160 345 -19 33 -20 57 -21 420 -1 834 -52 1107 -222 1189 -91 44 -249 22
-394 -55 -167 -89 -523 -362 -783 -601 -35 -33 -52 -35 -105 -13 -30 12 -94
29 -150 41 -27 6 -70 15 -95 20 -344 76 -870 76 -1170 -1 -112 -29 -108 -30
-185 57 -132 148 -420 436 -504 504 -46 37 -127 89 -180 115 -86 43 -104 48
-176 51 -63 3 -89 0 -120 -15z m402 -2538 c64 -37 97 -94 97 -170 0 -74 -21
-122 -71 -163 -104 -86 -243 -36 -286 103 -17 53 -17 60 -3 109 39 129 157
184 263 121z m1837 -101 c62 -44 91 -103 90 -188 -1 -101 -39 -161 -126 -203
-59 -27 -73 -27 -129 -1 -120 58 -164 186 -107 310 52 114 174 151 272 82z
m-946 -464 c40 -14 62 -49 62 -99 0 -58 -18 -87 -105 -168 l-75 -70 0 -70 c0
-39 5 -74 10 -77 6 -3 10 -15 10 -26 0 -28 43 -92 76 -114 45 -29 118 -44 165
-34 38 9 117 47 147 72 14 11 57 -23 67 -54 14 -43 -77 -149 -128 -149 -7 0
-18 -5 -24 -11 -13 -13 -174 -14 -200 -1 -10 5 -35 18 -57 28 -21 11 -65 45
-97 77 -33 31 -63 57 -68 57 -4 0 -15 -8 -24 -17 -9 -10 -31 -26 -49 -35 -92
-47 -113 -52 -192 -52 -67 0 -91 5 -138 28 -31 15 -70 42 -87 61 -58 67 -50
157 16 163 25 3 36 -4 63 -38 44 -55 77 -70 152 -69 78 1 112 19 156 83 27 41
32 57 32 107 0 64 1 61 -117 192 -30 33 -53 68 -53 80 0 12 -4 28 -9 36 -13
21 11 81 40 97 30 17 380 20 427 3z m-3078 -3054 c36 -8 81 -14 100 -15 20 0
40 -4 45 -9 6 -5 30 -11 55 -14 25 -3 83 -13 130 -21 174 -32 206 -38 250 -46
68 -12 300 -51 520 -86 97 -16 158 -27 243 -44 89 -18 142 -28 242 -45 55 -9
123 -20 150 -25 28 -5 111 -19 185 -31 74 -12 155 -25 180 -29 25 -5 87 -15
138 -23 51 -8 95 -16 97 -19 7 -7 -58 -65 -335 -297 -29 -25 -58 -50 -64 -56
-6 -6 -51 -44 -100 -85 -140 -118 -233 -197 -372 -315 -133 -114 -149 -127
-224 -194 -49 -44 -77 -49 -160 -30 -25 6 -81 17 -125 25 -94 18 -213 42 -270
54 -22 5 -53 12 -70 15 -16 3 -46 10 -65 15 -19 5 -73 16 -120 25 -47 8 -101
19 -120 24 -19 6 -89 19 -155 31 -66 12 -136 25 -155 30 -19 5 -78 16 -130 26
-52 9 -104 20 -115 24 -11 5 -33 11 -50 14 -16 3 -50 9 -75 15 -25 5 -135 28
-245 50 -301 61 -308 62 -333 72 -13 5 -35 9 -51 9 -15 0 -31 3 -35 7 -4 4
-37 13 -74 20 -64 12 -105 21 -197 44 -22 5 -71 16 -110 24 -71 15 -141 30
-275 60 -41 9 -90 19 -108 22 -18 3 -35 9 -38 14 -3 5 -20 9 -39 9 -19 0 -37
5 -40 10 -3 6 -22 10 -41 10 -56 0 -40 29 26 49 30 10 72 25 93 34 90 41 106
47 115 47 6 0 30 10 54 21 23 12 52 25 63 29 11 5 58 23 105 40 92 35 121 47
190 77 25 11 77 32 115 48 39 15 79 31 90 36 11 4 58 22 105 40 47 17 108 41
135 54 90 41 118 53 239 100 66 25 139 55 162 66 24 10 45 19 49 19 5 0 61 24
120 51 31 15 146 37 190 38 22 0 69 -6 105 -14z m3325 -366 c119 -19 243 -41
285 -49 25 -5 68 -14 95 -19 78 -16 133 -26 385 -69 299 -51 320 -55 450 -82
25 -5 86 -17 135 -25 50 -9 110 -20 135 -25 65 -13 273 -50 485 -86 50 -9 113
-20 140 -25 28 -6 67 -13 88 -16 20 -3 40 -9 43 -14 3 -5 15 -9 27 -9 51 0
174 -58 212 -100 18 -20 18 -21 -1 -35 -10 -8 -25 -15 -31 -15 -7 0 -13 -4
-13 -10 0 -5 -4 -10 -9 -10 -10 0 -169 -95 -250 -149 -31 -20 -112 -71 -181
-111 -69 -41 -126 -78 -128 -82 -2 -4 -7 -8 -12 -8 -5 0 -82 -46 -172 -101
-193 -120 -308 -189 -314 -189 -3 0 -10 -5 -17 -10 -18 -15 -148 -100 -153
-100 -3 0 -46 -25 -96 -55 -50 -30 -99 -55 -109 -55 -10 0 -20 -4 -23 -9 -14
-22 -134 -18 -266 9 -25 5 -83 16 -130 25 -47 9 -105 20 -130 25 -25 5 -97 18
-160 30 -63 12 -137 25 -165 31 -60 11 -218 39 -260 46 -16 2 -39 8 -50 13
-11 5 -38 11 -60 14 -22 2 -60 9 -85 15 -25 5 -83 16 -130 25 -47 9 -121 23
-165 31 -44 8 -120 22 -170 31 -49 9 -110 20 -135 25 -25 6 -65 14 -90 19 -25
4 -81 16 -125 25 -44 9 -100 20 -125 25 -25 5 -65 13 -90 19 -25 5 -62 12 -82
16 -21 4 -38 10 -38 14 0 4 23 24 51 46 28 22 56 45 63 51 6 5 57 46 114 90
56 43 153 118 215 167 62 48 146 113 187 144 41 31 89 68 106 83 16 14 43 35
60 47 16 12 76 57 133 100 192 144 326 243 363 268 20 13 40 29 43 36 8 11 15
11 150 -12z m-5525 -538 c14 -5 61 -17 105 -26 44 -10 89 -21 100 -26 11 -4
34 -10 50 -14 17 -3 46 -10 65 -15 19 -5 67 -16 105 -24 39 -9 102 -23 140
-31 39 -9 102 -23 140 -30 39 -8 88 -19 110 -24 101 -25 135 -33 200 -47 83
-18 136 -29 190 -43 22 -5 90 -19 150 -31 61 -12 128 -26 150 -31 22 -5 69
-14 105 -20 36 -6 73 -15 82 -20 10 -5 33 -9 52 -9 19 0 38 -4 41 -10 3 -5 21
-10 40 -10 19 0 36 -4 39 -9 3 -4 30 -11 61 -15 51 -6 79 -11 185 -36 19 -5
87 -18 150 -30 63 -11 131 -25 150 -30 19 -5 49 -12 65 -15 17 -3 64 -13 105
-21 41 -8 94 -19 118 -24 68 -16 125 -28 157 -35 86 -18 182 -36 285 -55 148
-27 212 -42 226 -52 6 -5 15 -25 19 -46 15 -81 81 -386 96 -447 6 -22 16 -66
22 -97 7 -31 15 -60 20 -64 4 -4 7 -18 7 -30 0 -13 4 -33 9 -46 13 -32 24 -76
76 -293 26 -104 50 -199 54 -210 5 -11 13 -36 19 -55 5 -19 18 -61 27 -93 14
-44 15 -63 7 -80 -5 -12 -18 -47 -26 -77 -9 -30 -21 -64 -26 -75 -5 -11 -29
-87 -55 -170 -25 -82 -50 -158 -55 -167 -6 -10 -10 -25 -10 -33 0 -8 -4 -24
-10 -35 -24 -49 -28 -58 -35 -90 -4 -19 -11 -41 -16 -50 -5 -8 -24 -62 -43
-120 -19 -58 -50 -148 -69 -200 -19 -52 -47 -129 -62 -170 -40 -109 -36 -107
-147 -80 -51 12 -103 26 -116 31 -13 5 -34 9 -47 9 -13 0 -27 5 -30 10 -3 6
-19 10 -35 10 -16 0 -31 4 -34 9 -3 5 -20 11 -38 14 -18 3 -60 12 -93 20 -33
9 -125 31 -205 51 -80 19 -158 40 -175 45 -16 5 -50 13 -75 16 -25 4 -49 11
-55 15 -5 4 -23 10 -40 13 -16 3 -47 10 -67 16 -62 18 -110 30 -173 45 -33 8
-116 29 -185 46 -69 17 -141 35 -160 40 -19 4 -80 20 -135 35 -55 15 -115 29
-133 32 -18 3 -35 9 -38 14 -3 5 -15 9 -26 9 -12 0 -35 4 -52 10 -28 9 -178
45 -301 72 -27 6 -59 14 -70 18 -11 5 -31 11 -45 15 -14 3 -38 10 -55 15 -72
20 -233 62 -270 70 -43 9 -265 64 -330 81 -22 6 -48 15 -57 20 -10 5 -27 9
-38 9 -11 0 -28 4 -38 9 -9 5 -56 21 -104 36 -104 33 -159 75 -182 138 -13 36
-15 200 -20 1198 -2 636 -1 1174 4 1195 10 45 66 100 109 107 32 6 107 -1 141
-12z m8218 -198 c16 -35 17 -134 20 -1245 2 -1202 2 -1206 -19 -1262 -25 -68
-95 -147 -187 -212 -37 -26 -69 -50 -72 -53 -3 -3 -39 -31 -80 -62 -41 -31
-111 -82 -154 -115 -43 -32 -86 -63 -95 -69 -9 -5 -32 -22 -51 -36 -19 -14
-98 -72 -175 -129 -77 -57 -186 -137 -242 -179 -56 -42 -118 -87 -138 -101
-20 -14 -42 -29 -48 -35 -11 -9 -53 -40 -150 -111 -23 -17 -79 -58 -124 -92
-45 -34 -87 -62 -93 -62 -7 0 -10 422 -8 1368 l3 1367 27 56 c32 66 60 92 172
158 44 26 120 73 168 104 48 32 90 57 93 57 3 0 51 29 106 65 55 36 101 65
103 65 5 0 198 118 284 173 40 26 75 47 77 47 3 0 51 29 106 65 55 36 102 65
104 65 3 0 29 16 59 35 30 19 58 35 61 35 5 0 145 90 155 100 9 9 65 39 73 40
4 0 16 -17 25 -37z m-4093 -538 c22 -4 49 -10 60 -15 11 -5 47 -11 80 -14 33
-3 98 -12 145 -21 47 -9 110 -21 140 -26 30 -6 75 -15 100 -20 56 -12 150 -31
320 -64 122 -23 168 -33 225 -45 65 -14 110 -23 285 -55 80 -14 168 -31 195
-36 28 -5 66 -12 85 -15 19 -3 44 -9 55 -14 11 -5 36 -11 55 -13 19 -3 67 -12
105 -21 39 -9 90 -21 115 -26 25 -5 59 -12 75 -15 39 -8 109 -43 132 -65 32
-31 53 -60 53 -73 0 -7 6 -19 13 -25 14 -15 24 -787 26 -2003 1 -757 4 -724
-63 -788 -65 -63 -137 -61 -418 10 -21 5 -55 13 -75 18 -43 11 -273 64 -378
87 -38 8 -87 19 -107 25 -21 5 -55 13 -75 18 -44 11 -148 36 -213 52 -25 5
-61 14 -80 19 -19 5 -55 14 -80 19 -85 19 -235 53 -300 68 -36 8 -80 17 -98
20 -18 3 -35 9 -38 14 -3 5 -15 9 -26 9 -12 0 -35 4 -52 10 -31 9 -163 40
-346 80 -96 21 -151 34 -205 50 -16 5 -47 12 -67 15 -53 10 -113 32 -113 42 0
13 65 216 76 235 5 10 9 27 9 37 0 11 4 22 9 25 5 3 11 18 14 33 3 16 10 45
16 66 6 20 15 52 20 70 9 32 36 127 51 182 22 75 32 113 40 145 10 41 57 219
71 270 6 19 14 51 19 70 5 19 13 53 19 75 7 26 11 306 11 824 l0 783 37 -6
c21 -3 56 -8 78 -11z"/>
<path d="M807 3756 c-66 -24 -102 -61 -144 -148 -44 -92 -53 -142 -53 -303 0
-135 10 -215 31 -257 5 -10 9 -24 9 -32 0 -7 16 -44 35 -82 36 -70 101 -145
145 -168 14 -7 36 -18 50 -26 48 -25 60 -30 79 -30 11 0 23 -4 26 -10 3 -5 46
-10 95 -10 94 0 133 13 189 63 45 41 94 191 73 224 -13 20 -163 54 -185 42 -8
-5 -18 -27 -22 -48 -9 -54 -45 -91 -88 -91 -103 0 -171 65 -210 200 -14 47
-21 339 -9 365 6 11 15 34 22 52 22 57 54 78 121 76 95 -2 152 -47 167 -132 6
-39 11 -45 44 -57 21 -7 64 -14 95 -16 l58 -3 3 47 c3 50 -17 123 -49 174 -26
43 -99 108 -148 133 -88 45 -258 64 -334 37z"/>
<path d="M1413 3698 c-8 -13 -6 -1029 3 -1058 4 -16 68 -40 104 -40 12 0 30
-5 41 -11 15 -7 24 -7 35 2 11 9 14 57 14 263 0 251 0 253 23 274 45 42 134
21 160 -37 8 -16 14 -124 17 -291 l5 -264 35 -9 c79 -19 135 -26 143 -18 5 5
7 143 5 307 -4 279 -5 302 -25 345 -29 64 -78 116 -130 140 -57 26 -162 29
-198 5 -13 -9 -29 -16 -35 -16 -6 0 -10 59 -10 168 0 92 -3 177 -6 188 -6 22
-11 24 -104 42 -25 4 -51 11 -57 15 -6 4 -15 2 -20 -5z"/>
<path d="M3469 3266 c-3 -3 -4 -243 -1 -533 4 -475 6 -529 21 -538 17 -10 84
-24 136 -28 l30 -2 3 103 c2 95 5 106 28 129 13 13 29 23 35 21 5 -2 29 -48
53 -103 94 -219 84 -206 186 -220 30 -4 64 -11 76 -15 45 -18 44 4 -4 101 -26
52 -56 115 -66 140 -16 36 -100 216 -113 241 -2 4 24 39 59 76 117 128 161
183 152 192 -13 13 -168 42 -201 38 -22 -2 -43 -24 -107 -108 -43 -58 -82
-104 -85 -103 -3 2 -8 129 -11 282 -4 202 -8 283 -17 292 -7 7 -34 16 -60 20
-27 5 -62 11 -78 14 -17 4 -33 4 -36 1z"/>
<path d="M2257 3199 c-110 -26 -154 -87 -188 -267 -23 -119 24 -299 106 -406
31 -40 119 -93 175 -105 25 -6 58 -13 73 -17 54 -13 165 32 204 82 48 64 65
129 65 255 0 68 -5 131 -12 155 -41 124 -103 211 -185 260 -38 22 -152 55
-185 53 -8 -1 -32 -5 -53 -10z m195 -229 c32 -40 48 -105 48 -204 0 -120 -31
-176 -95 -175 -102 2 -157 119 -139 299 5 54 12 76 31 96 22 24 30 26 76 21
43 -4 56 -10 79 -37z"/>
<path d="M2777 3104 c-11 -11 -8 -752 2 -759 10 -6 80 -21 144 -32 l37 -6 0
257 0 258 29 29 c21 21 39 29 64 29 42 0 99 -37 108 -70 4 -14 7 -141 8 -283
1 -294 -10 -263 102 -287 101 -22 94 -41 97 250 3 244 -4 335 -29 382 -5 10
-9 23 -9 30 -1 29 -70 106 -114 126 -63 30 -177 31 -224 2 -41 -25 -42 -25
-42 5 0 31 -31 51 -94 60 -27 4 -54 9 -60 11 -7 3 -15 1 -19 -2z"/>
<path d="M4999 2928 c-15 -25 -19 -45 -16 -81 7 -84 66 -140 148 -141 67 -1
89 23 89 99 0 91 -61 153 -153 154 -43 1 -49 -2 -68 -31z"/>
<path d="M5505 2856 c-34 -15 -81 -65 -98 -105 -6 -14 -13 -60 -16 -101 l-6
-75 -35 1 c-19 0 -42 4 -51 8 -19 8 -29 -27 -29 -101 0 -61 14 -83 51 -83 17
0 39 -5 50 -10 18 -10 19 -24 19 -310 0 -189 4 -301 10 -305 14 -8 107 -26
148 -28 l33 -2 2 300 c2 339 -8 305 85 289 l42 -7 0 86 0 86 -37 10 c-21 5
-49 11 -63 13 -22 3 -25 8 -28 54 -2 40 2 56 19 78 21 27 25 28 81 22 l59 -6
-3 87 -3 87 -50 13 c-64 16 -142 16 -180 -1z"/>
<path d="M5006 2643 c-9 -9 -7 -766 2 -779 18 -28 176 -56 183 -33 2 8 2 185
-1 394 l-5 379 -35 9 c-19 4 -54 12 -78 17 -24 5 -47 12 -51 15 -5 2 -11 2
-15 -2z"/>
<path d="M5764 2444 c8 -46 25 -102 37 -126 5 -10 9 -25 9 -33 0 -8 4 -23 9
-33 5 -9 13 -33 19 -52 20 -68 42 -146 62 -220 11 -41 25 -93 31 -115 6 -22
15 -51 19 -65 5 -14 16 -52 26 -84 l18 -59 -25 -46 c-15 -29 -37 -52 -61 -65
-33 -17 -42 -18 -77 -6 -21 7 -44 9 -50 6 -12 -8 -15 -155 -3 -171 23 -32 139
-45 203 -22 100 35 151 101 214 277 15 41 30 84 35 95 10 25 64 201 86 280 9
33 20 68 25 77 5 10 9 26 9 36 0 10 4 22 8 27 15 18 65 184 59 198 -3 8 -40
21 -93 31 -84 17 -89 17 -101 0 -7 -10 -13 -24 -13 -32 0 -7 -7 -37 -16 -65
-8 -29 -20 -70 -26 -92 -6 -22 -14 -51 -18 -65 -4 -14 -13 -45 -20 -70 -26
-94 -32 -110 -40 -110 -5 0 -11 15 -15 33 -18 94 -38 184 -45 202 -5 11 -11
34 -15 50 -3 17 -10 48 -16 70 -6 22 -15 63 -20 92 -7 31 -17 54 -27 59 -22 9
-95 24 -151 31 l-44 5 7 -38z"/>
<path d="M958 11183 c-58 -62 -55 -75 92 -388 11 -22 31 -69 46 -105 14 -36
48 -110 74 -165 59 -124 90 -192 90 -199 0 -6 55 -125 110 -241 16 -33 48
-105 70 -160 63 -151 110 -244 134 -260 11 -8 43 -15 70 -15 43 0 53 4 82 36
19 19 34 45 34 57 0 21 -21 88 -30 97 -7 7 -23 42 -65 145 -21 50 -50 117 -65
150 -37 78 -74 160 -117 260 -19 44 -59 131 -89 194 -30 62 -54 115 -54 117 0
2 -11 27 -24 56 -13 29 -34 76 -46 103 -12 28 -39 86 -60 130 -21 44 -47 101
-59 127 -31 70 -55 88 -116 88 -43 0 -55 -4 -77 -27z"/>
<path d="M2218 10653 c-14 -16 -28 -37 -32 -48 -5 -11 -12 -184 -17 -385 -9
-408 -10 -403 61 -442 65 -35 136 -4 158 70 13 44 23 699 11 752 -18 78 -128
110 -181 53z"/>
<path d="M153 10355 c-43 -14 -71 -41 -78 -76 -15 -66 9 -102 155 -233 30 -26
100 -92 155 -145 56 -53 137 -129 180 -170 139 -130 238 -222 320 -301 162
-154 184 -170 226 -170 90 0 146 90 105 168 -14 28 -65 78 -266 262 -63 58
-157 146 -210 195 -52 50 -131 123 -175 164 -44 41 -121 114 -171 161 -146
139 -187 164 -241 145z"/>
</g>
</svg>
