<?xml version="1.0" standalone="no"?>
<!DOCTYPE svg PUBLIC "-//W3C//DTD SVG 20010904//EN"
 "http://www.w3.org/TR/2001/REC-SVG-20010904/DTD/svg10.dtd">
<svg version="1.0" xmlns="http://www.w3.org/2000/svg"
 width="200px" height="200px" viewBox="0 0 1080.000000 1080.000000"
 preserveAspectRatio="xMidYMid meet">

<g transform="translate(0.000000,1080.000000) scale(0.100000,-0.100000)"
fill="#000000" stroke="none">
<path d="M3766 8393 c-64 -356 -71 -725 -22 -1054 8 -52 19 -114 26 -139 10
-42 9 -51 -23 -126 -73 -170 -130 -401 -148 -595 l-12 -126 -186 -7 c-214 -8
-243 -12 -239 -34 3 -14 16 -16 93 -12 50 3 144 5 210 5 l120 0 7 -90 c12
-145 38 -229 111 -358 21 -38 37 -70 35 -71 -2 -2 -23 -11 -48 -20 -65 -25
-289 -148 -294 -161 -2 -7 0 -18 4 -25 7 -11 28 -2 93 38 82 51 247 132 267
132 5 0 53 -44 107 -98 54 -54 135 -123 181 -153 45 -29 82 -59 82 -64 0 -6
-55 -73 -122 -149 -143 -161 -323 -379 -346 -418 -17 -28 -29 -34 -127 -63
-162 -47 -271 -161 -309 -324 -8 -35 -17 -65 -20 -68 -3 -3 -186 -50 -407
-105 -220 -54 -414 -105 -430 -114 -52 -26 -71 -69 -66 -146 5 -80 50 -216 86
-259 43 -51 84 -49 306 14 105 30 244 69 310 87 66 18 156 43 200 55 44 12
104 28 134 35 l55 13 34 -37 c25 -29 32 -43 27 -59 -61 -195 -87 -360 -87
-552 1 -175 17 -284 67 -433 19 -57 35 -108 35 -113 0 -5 -123 -9 -295 -9
l-295 0 -12 -25 c-22 -49 -13 -50 325 -50 172 0 317 -1 322 -3 6 -1 30 -31 53
-66 23 -36 76 -100 117 -144 189 -201 428 -300 656 -271 168 21 278 88 344
209 25 46 51 80 70 91 40 23 42 23 50 -8 13 -54 36 -75 132 -119 54 -25 92
-48 87 -53 -10 -9 -275 -155 -473 -259 -138 -74 -141 -78 -140 -206 0 -113 12
-172 38 -200 14 -15 64 -38 134 -61 121 -40 436 -152 662 -235 279 -103 271
-103 465 -22 52 22 176 75 275 117 99 43 279 118 400 167 121 49 229 98 240
109 18 17 20 35 23 173 l3 154 -58 44 c-88 66 -127 89 -268 160 -158 79 -233
126 -214 132 8 3 46 12 85 20 39 9 78 18 86 21 10 4 17 -10 26 -55 18 -87 57
-125 195 -196 104 -53 231 -123 388 -214 129 -76 206 -110 247 -110 101 0 762
258 816 318 24 28 38 150 31 272 -8 119 -37 184 -129 293 -109 126 -260 238
-435 319 -140 65 -137 63 -133 84 2 11 6 96 9 189 6 196 -9 328 -57 512 -32
119 -87 282 -101 298 -26 27 -8 35 79 35 170 0 298 55 428 185 101 100 156
203 181 340 15 80 15 102 3 195 -7 58 -13 126 -12 153 1 26 3 84 4 130 3 71 0
89 -24 139 -65 140 -201 214 -327 178 -25 -7 -38 -6 -55 5 -40 26 -147 48
-204 41 -61 -7 -107 -29 -208 -97 -57 -38 -75 -57 -95 -98 -25 -55 -37 -61
-134 -76 -39 -7 -42 -5 -98 53 -31 33 -57 65 -57 71 0 5 27 26 61 46 96 56
193 139 276 235 42 50 84 90 92 90 14 0 166 -78 278 -141 33 -19 45 -21 54
-12 10 10 9 16 -1 28 -16 20 -154 95 -240 131 -36 15 -69 31 -74 35 -4 4 8 40
28 81 46 94 67 179 75 303 l6 100 218 0 c193 0 217 2 217 16 0 23 -58 29 -266
29 l-172 0 -7 68 c-21 226 -78 450 -167 651 l-50 114 16 76 c56 266 51 688
-12 1086 -15 96 -20 110 -37 113 -23 3 -176 -48 -308 -104 -218 -91 -509 -308
-650 -484 l-35 -44 -89 17 c-297 58 -589 60 -915 6 l-126 -22 -63 69 c-192
209 -400 358 -647 464 -91 39 -215 83 -268 94 l-32 7 -16 -88z m3098 -50 c22
-106 39 -313 43 -523 5 -240 -3 -347 -44 -606 -4 -23 10 -65 51 -160 92 -216
131 -359 157 -577 15 -126 17 -121 -75 -131 -153 -17 -471 -91 -667 -157 -171
-57 -286 -119 -220 -119 10 0 77 22 149 49 231 88 661 191 795 191 l27 0 0
-73 c0 -132 -75 -357 -119 -357 -11 0 -67 13 -124 30 -200 58 -444 100 -579
100 -64 0 -88 -7 -88 -25 0 -8 36 -14 125 -19 69 -3 185 -17 258 -31 136 -25
363 -87 379 -103 10 -10 -85 -120 -162 -186 -30 -26 -87 -68 -127 -92 -68 -43
-285 -144 -310 -144 -18 0 -26 -18 -19 -46 8 -32 38 -31 127 1 l69 25 55 -58
c30 -31 55 -60 55 -63 0 -9 -370 -105 -1470 -378 -553 -138 -1015 -253 -1027
-256 -16 -4 -33 6 -65 35 -24 23 -61 54 -83 69 -46 32 -163 81 -194 81 -12 0
-21 6 -21 14 0 35 451 556 481 556 5 0 47 -13 94 -30 85 -29 86 -29 105 -10
11 11 20 24 20 29 0 13 -41 41 -60 41 -30 0 -275 129 -342 180 -83 63 -188
165 -188 183 0 14 147 70 290 111 104 29 315 66 380 66 58 0 80 7 80 26 0 52
-523 -46 -742 -140 -21 -9 -43 -16 -51 -16 -21 0 -115 196 -132 275 -16 76
-20 181 -7 189 11 7 284 -30 402 -54 120 -24 376 -100 493 -146 86 -34 123
-38 115 -12 -3 7 -35 24 -71 39 -240 99 -559 177 -877 216 l-65 8 2 84 c5 174
73 449 156 631 l33 72 -18 86 c-58 286 -70 706 -29 982 12 80 26 149 32 155
24 24 311 -105 475 -214 114 -75 259 -204 349 -310 80 -93 55 -88 245 -52 296
55 630 52 922 -10 l97 -21 158 160 c128 128 180 173 273 234 124 81 263 155
375 199 91 35 102 35 109 2z m509 -2876 c41 -31 51 -32 100 -12 51 21 90 19
146 -10 87 -44 132 -115 132 -209 0 -92 -22 -160 -73 -225 -51 -66 -138 -92
-180 -54 -23 21 -23 37 2 126 12 39 24 111 27 158 6 84 5 87 -17 94 -35 11
-46 -11 -64 -140 -28 -200 -46 -233 -129 -242 -38 -5 -48 -1 -77 24 l-33 30 2
119 c1 65 4 138 7 161 9 63 -1 93 -31 93 -13 0 -27 -6 -32 -12 -4 -7 -10 -89
-13 -183 l-5 -170 -37 -3 c-40 -3 -101 23 -131 56 -29 32 -36 76 -27 166 10
103 27 138 77 161 21 9 52 31 69 47 45 43 97 59 180 55 59 -2 77 -7 107 -30z
m-488 -398 c10 -19 32 -50 50 -69 l33 -35 -60 -90 c-184 -273 -343 -423 -552
-520 -186 -86 -339 -123 -956 -231 -107 -18 -247 -43 -310 -54 -204 -36 -800
-130 -826 -130 -48 0 -69 112 -34 185 42 87 26 254 -37 378 -13 27 -22 51 -20
54 7 6 2592 653 2662 665 18 3 21 -4 27 -58 3 -34 14 -77 23 -95z m865 -202
c0 -153 -51 -285 -153 -394 -79 -84 -127 -117 -220 -148 -102 -34 -205 -34
-300 -1 -70 25 -110 51 -185 118 -24 22 -48 38 -54 36 -7 -3 -21 -16 -32 -31
l-20 -27 40 -41 c21 -22 70 -61 108 -86 62 -42 72 -53 102 -118 53 -115 119
-321 145 -450 20 -102 24 -150 24 -328 0 -232 4 -221 -74 -230 -25 -3 -118
-33 -205 -66 -87 -34 -160 -61 -161 -61 -1 0 -5 48 -9 108 -16 250 -102 761
-142 844 -20 42 -66 70 -149 92 -171 44 -253 35 -925 -95 -342 -67 -601 -141
-764 -219 -105 -50 -116 -68 -116 -192 1 -180 24 -378 86 -728 19 -107 32
-202 29 -211 -5 -16 -62 -47 -69 -38 -2 2 -8 30 -14 62 -15 76 -77 207 -144
304 -71 104 -210 247 -316 327 -96 73 -128 82 -138 39 -8 -30 -12 -26 125
-133 46 -35 117 -102 158 -148 242 -273 310 -528 171 -647 -64 -54 -136 -77
-260 -83 -150 -6 -249 24 -393 121 -74 50 -194 171 -247 250 -184 271 -235
665 -137 1049 29 117 26 113 111 113 58 0 81 5 111 23 32 18 47 21 91 16 66
-8 109 6 161 51 22 19 48 35 58 35 10 0 33 6 52 14 l35 15 10 -42 c27 -111 31
-117 66 -117 62 0 396 54 1129 181 94 17 206 36 250 44 583 101 744 150 970
300 138 92 304 272 440 478 28 41 59 78 70 81 46 13 91 5 134 -24 36 -24 54
-30 99 -30 30 0 72 5 93 12 32 9 45 8 76 -5 21 -9 52 -19 69 -22 42 -8 132 27
169 65 15 16 32 27 37 24 4 -3 8 -42 8 -87z m-3945 -132 c132 -35 258 -147
341 -305 27 -51 29 -64 29 -161 0 -100 -2 -108 -28 -147 -26 -37 -92 -81 -104
-69 -2 3 -17 54 -32 114 -37 144 -54 183 -81 183 -11 0 -23 -7 -26 -15 -4 -8
8 -68 26 -134 37 -141 37 -185 -3 -215 -38 -28 -113 -29 -133 -1 -8 11 -33 78
-56 150 -44 138 -55 159 -80 150 -30 -12 -27 -47 13 -172 21 -68 39 -135 39
-149 0 -52 -108 -58 -180 -10 -55 36 -121 124 -178 235 l-47 93 0 112 c0 95 3
117 22 152 89 166 278 241 478 189z m-549 -540 c7 -19 14 -46 14 -60 0 -21 -5
-25 -29 -25 -16 0 -37 7 -45 16 -32 31 -11 104 30 104 8 0 22 -16 30 -35z
m-194 -2 c47 -42 -6 -126 -66 -103 -47 17 -56 68 -20 105 20 20 63 19 86 -2z
m-490 -130 c22 -20 23 -70 1 -95 -35 -39 -103 -7 -103 49 0 55 61 83 102 46z
m3909 -47 c83 -30 83 -31 144 -366 32 -175 75 -526 75 -606 0 -27 -5 -34 -37
-47 -37 -14 -38 -14 -77 19 -94 81 -239 49 -288 -64 -17 -38 -19 -56 -13 -106
5 -34 9 -117 9 -185 l1 -123 -110 -35 c-103 -32 -548 -138 -679 -162 -154 -28
-281 -2 -498 101 -122 58 -129 63 -137 97 -13 53 -88 462 -105 571 -39 245
-57 490 -37 490 14 0 217 -97 261 -125 72 -45 118 -189 73 -226 -22 -19 -53
-88 -53 -122 0 -61 53 -116 97 -100 41 14 53 35 53 89 0 65 -36 286 -54 329
-19 44 -48 65 -218 151 -82 41 -146 79 -143 85 25 39 279 125 570 193 154 36
549 113 755 146 143 24 340 22 411 -4z m-1371 -883 c0 -23 -5 -45 -11 -49 -26
-16 -39 59 -17 96 17 26 28 7 28 -47z m2230 -72 c232 -103 423 -248 521 -394
46 -70 48 -89 12 -106 -52 -24 -568 -229 -635 -252 l-67 -23 -101 106 c-160
170 -315 275 -530 361 -61 25 -114 47 -117 51 -9 8 265 139 377 180 52 19 147
55 210 81 148 59 192 58 330 -4z m-816 -82 c14 -11 24 -24 21 -29 -5 -8 -191
-110 -200 -110 -9 0 -5 42 7 82 6 22 23 48 36 59 34 26 101 25 136 -2z m-63
-258 c100 -34 212 -91 311 -158 112 -75 278 -227 320 -292 27 -44 28 -49 28
-179 l0 -133 -22 6 c-51 15 -680 373 -713 405 -17 18 -20 37 -23 180 -3 87 -2
166 1 175 8 20 32 19 98 -4z m1459 -316 c0 -148 -9 -167 -102 -209 -102 -46
-553 -216 -611 -230 l-28 -7 3 133 3 133 175 67 c96 37 258 101 360 142 102
42 188 76 193 76 4 0 7 -47 7 -105z m-1649 -155 c284 -147 318 -167 319 -188
0 -21 -252 -133 -620 -274 -129 -50 -272 -105 -317 -124 -86 -36 -160 -44
-219 -25 -16 6 -117 38 -224 72 -637 202 -756 248 -724 278 5 5 122 67 259
138 138 72 277 145 310 162 l60 33 85 -26 c121 -36 157 -40 255 -27 79 11 435
88 510 110 17 5 31 10 33 10 2 1 125 -62 273 -139z m319 -355 l0 -85 -41 -21
c-23 -11 -83 -37 -133 -56 -50 -19 -147 -59 -216 -88 -271 -115 -527 -224
-570 -244 -78 -36 -80 -34 -80 72 l0 93 48 16 c51 17 454 169 512 193 123 51
374 158 420 179 30 14 56 26 58 26 1 0 2 -38 2 -85z m-2010 -41 c47 -19 123
-48 170 -64 173 -59 607 -192 665 -204 l60 -12 3 -102 c2 -64 -1 -102 -7 -102
-6 0 -36 12 -68 26 -88 39 -602 226 -806 294 -98 32 -114 50 -120 133 -3 47
-1 67 7 67 6 0 50 -16 96 -36z"/>
<path d="M6635 8126 c-45 -27 -71 -61 -194 -251 -100 -153 -117 -194 -99 -233
22 -45 61 -41 208 24 72 32 144 69 162 84 31 26 31 27 36 137 6 140 -4 219
-29 244 -25 25 -36 24 -84 -5z"/>
<path d="M4014 8132 c-27 -18 -34 -56 -34 -190 0 -76 5 -153 11 -171 13 -36
24 -42 186 -112 135 -57 176 -62 196 -21 24 46 8 80 -134 292 -125 187 -178
234 -225 202z"/>
<path d="M5346 7615 c-8 -21 -8 -383 0 -413 5 -18 13 -22 33 -20 l26 3 3 172
c3 208 -4 267 -34 271 -13 2 -24 -4 -28 -13z"/>
<path d="M5001 7571 c-11 -7 -8 -42 21 -207 l34 -199 27 -3 c38 -5 38 8 1 208
-40 215 -44 225 -83 201z"/>
<path d="M5691 7546 c-19 -71 -63 -355 -57 -371 3 -10 15 -15 28 -13 26 3 29
16 69 255 18 109 20 135 9 147 -20 25 -38 19 -49 -18z"/>
<path d="M4359 6567 c-109 -25 -163 -80 -125 -130 12 -15 24 -16 99 -11 138
11 236 -17 360 -102 59 -41 66 -41 101 -9 34 31 33 62 -3 112 -80 110 -279
174 -432 140z"/>
<path d="M6230 6567 c-79 -18 -167 -64 -222 -118 -39 -37 -48 -52 -48 -80 0
-37 33 -79 61 -79 8 0 51 24 96 54 108 70 188 91 318 83 81 -6 95 -4 109 12
74 82 -137 168 -314 128z"/>
<path d="M5294 6273 c-17 -2 -42 -15 -54 -28 -45 -48 -1 -135 90 -176 54 -25
60 -40 36 -88 -64 -123 -247 -133 -286 -15 -16 48 -46 44 -42 -6 6 -77 72
-124 172 -124 73 1 111 16 159 65 l31 31 45 -40 c76 -67 171 -78 256 -30 43
24 73 72 68 108 -6 36 -43 34 -47 -2 -4 -34 -51 -75 -96 -83 -72 -14 -165 35
-192 102 -21 50 -17 61 29 81 23 11 55 33 70 50 48 51 53 129 10 147 -21 9
-204 15 -249 8z"/>
<path d="M5966 4861 c-10 -16 19 -131 80 -313 63 -188 71 -204 102 -194 27 9
29 54 6 122 -8 25 -13 48 -11 51 7 6 187 -55 215 -73 21 -14 25 -14 43 2 10 9
19 23 19 30 0 23 -51 53 -136 81 -46 15 -84 31 -84 35 0 4 15 29 34 55 41 59
51 89 36 108 -25 31 -47 16 -99 -65 -28 -44 -54 -80 -59 -80 -4 0 -26 55 -47
123 -37 113 -42 122 -67 125 -14 2 -29 -1 -32 -7z"/>
<path d="M5774 4641 c-17 -10 -40 -31 -51 -47 l-20 -28 -12 22 c-13 24 -49 30
-57 9 -6 -15 73 -305 89 -324 12 -17 29 -16 51 0 17 12 17 17 1 91 -19 96 -9
170 30 206 21 20 28 22 49 12 38 -17 56 -52 79 -159 21 -93 23 -98 50 -101 36
-4 41 13 27 85 -29 150 -67 217 -133 242 -41 16 -68 13 -103 -8z"/>
<path d="M4832 4578 c-16 -16 -15 -36 4 -145 28 -163 71 -326 91 -340 46 -35
57 3 39 142 -7 54 -5 64 16 95 27 40 70 60 96 44 30 -19 56 -77 72 -158 18
-89 40 -116 66 -81 32 42 -3 195 -62 269 -50 63 -116 70 -190 20 -20 -14 -37
-24 -38 -22 -2 2 -10 41 -20 88 -10 47 -23 88 -30 92 -16 11 -30 10 -44 -4z"/>
<path d="M5361 4533 c-47 -24 -69 -58 -81 -121 -17 -93 16 -184 80 -217 16 -8
53 -15 83 -15 43 0 63 6 99 30 54 36 73 75 72 150 0 61 -25 120 -68 160 -36
33 -134 40 -185 13z m107 -64 c45 -15 66 -54 65 -118 0 -47 -4 -58 -27 -78
-36 -30 -86 -30 -122 0 -52 45 -40 173 19 197 29 12 29 12 65 -1z"/>
<path d="M4607 4440 c-98 -30 -148 -139 -116 -255 32 -116 184 -160 289 -84
43 31 48 53 18 73 -13 8 -26 5 -56 -12 -50 -28 -115 -29 -141 -3 -49 49 -51
154 -3 191 22 18 37 21 92 18 59 -3 65 -1 68 18 2 11 -5 27 -15 36 -22 19 -98
29 -136 18z"/>
<path d="M6148 3880 c-88 -26 -147 -101 -155 -197 -6 -71 22 -131 80 -177 36
-29 45 -31 117 -31 71 0 82 3 121 30 105 74 121 228 34 319 -53 54 -130 76
-197 56z m105 -64 c53 -22 87 -70 87 -122 0 -125 -103 -203 -203 -155 -81 39
-110 135 -64 216 37 66 110 91 180 61z"/>
<path d="M5512 3339 c-66 -33 -97 -87 -97 -168 1 -43 7 -77 18 -98 60 -112
220 -124 311 -23 38 43 51 88 43 156 -13 121 -157 191 -275 133z m156 -53 c59
-32 80 -122 42 -183 -24 -41 -67 -63 -121 -63 -35 0 -48 6 -80 39 -35 35 -39
44 -39 91 0 47 4 56 39 91 34 35 44 39 87 39 27 -1 59 -6 72 -14z"/>
<path d="M5156 2808 c-52 -74 39 -242 130 -242 44 0 84 40 84 82 0 43 -45 127
-82 156 -46 34 -110 36 -132 4z m112 -74 c46 -55 48 -123 3 -106 -31 12 -80
84 -81 120 0 36 43 29 78 -14z"/>
<path d="M5800 2243 c-83 -30 -108 -63 -90 -119 8 -25 23 -38 58 -56 96 -46
288 -21 322 42 13 25 6 83 -13 98 -38 31 -223 55 -277 35z m200 -69 c47 -19
50 -29 13 -47 -65 -33 -202 -27 -239 10 -13 14 -13 17 2 34 14 16 32 19 100
19 54 0 98 -6 124 -16z"/>
<path d="M5056 2180 c-27 -5 -69 -22 -95 -37 -44 -28 -46 -31 -49 -81 -3 -49
-1 -53 29 -71 129 -79 392 16 354 126 -18 52 -131 82 -239 63z m174 -70 c15
-24 7 -33 -50 -63 -76 -38 -161 -40 -196 -5 l-25 24 26 24 c30 29 80 39 168
36 47 -1 71 -6 77 -16z"/>
</g>
</svg>
